<svg xmlns="http://www.w3.org/2000/svg" viewBox="8 -17 140 140" role="img" aria-label="Pal Quant Labs"><title>Pal Quant Labs</title><g transform="rotate(-25.0 72 56)"><line x1="72" y1="8.85" x2="72" y2="-2.85" stroke="#64748B" stroke-width="2" stroke-linecap="butt"/><rect x="68.5" y="2.22" width="7" height="1.69" fill="#64748B"/></g><g transform="rotate(-5.0 72 56)"><line x1="72" y1="8.20" x2="72" y2="-0.90" stroke="#06B6D4" stroke-width="2" stroke-linecap="butt"/><rect x="68.5" y="-0.90" width="7" height="9.10" fill="#06B6D4"/></g><g transform="rotate(15.0 72 56)"><line x1="72" y1="9.50" x2="72" y2="-3.50" stroke="#06B6D4" stroke-width="2" stroke-linecap="butt"/><rect x="68.5" y="-2.20" width="7" height="4.55" fill="#06B6D4"/></g><g transform="rotate(35.0 72 56)"><line x1="72" y1="7.55" x2="72" y2="-4.15" stroke="#64748B" stroke-width="2" stroke-linecap="butt"/><rect x="68.5" y="1.05" width="7" height="3.25" fill="#64748B"/></g><g transform="rotate(55.0 72 56)"><line x1="72" y1="6.90" x2="72" y2="-7.40" stroke="#06B6D4" stroke-width="2" stroke-linecap="butt"/><rect x="68.5" y="-6.10" width="7" height="11.70" fill="#06B6D4"/></g><g transform="rotate(75.0 72 56)"><line x1="72" y1="6.25" x2="72" y2="-8.70" stroke="#64748B" stroke-width="2" stroke-linecap="butt"/><rect x="68.5" y="1.70" width="7" height="3.25" fill="#64748B"/></g><g transform="rotate(95.0 72 56)"><line x1="72" y1="5.60" x2="72" y2="-10.00" stroke="#06B6D4" stroke-width="2" stroke-linecap="butt"/><rect x="68.5" y="-8.70" width="7" height="13.00" fill="#06B6D4"/></g><g transform="rotate(115.0 72 56)"><line x1="72" y1="3.00" x2="72" y2="-13.25" stroke="#06B6D4" stroke-width="2" stroke-linecap="butt"/><rect x="68.5" y="-10.00" width="7" height="11.05" fill="#06B6D4"/></g><polygon points="29,13 32.5,13 32.5,114.00 29,116" fill="#F8FAFC"/><polygon points="34.0,13 43,13 43,108.00 34.0,113.14" fill="#94A3B8"/><circle cx="72" cy="56" r="41.25" fill="none" stroke="#F8FAFC" stroke-width="3.5"/><circle cx="72" cy="56" r="33.75" fill="none" stroke="#94A3B8" stroke-width="8.5"/><path d="M72.00 14.75 A41.25 41.25 0 0 1 107.72 35.38" fill="none" stroke="#22D3EE" stroke-width="3.5"/><path d="M72.00 22.25 A33.75 33.75 0 0 1 101.23 39.12" fill="none" stroke="#06B6D4" stroke-width="8.5"/><path d="M87.28 66.03 L118.05 99.16" stroke="#22D3EE" stroke-width="3.5"/><path d="M81.79 71.14 L112.55 104.27" stroke="#0891B2" stroke-width="8.5"/><polygon points="72,56 69.74,53.74 72.00,44.00" fill="#22D3EE"/><polygon points="72,56 72.00,44.00 74.26,53.74" fill="#0891B2"/><polygon points="72,56 74.26,53.74 88.80,56.00" fill="#22D3EE"/><polygon points="72,56 88.80,56.00 74.26,58.26" fill="#0891B2"/><polygon points="72,56 74.26,58.26 72.00,68.00" fill="#22D3EE"/><polygon points="72,56 72.00,68.00 69.74,58.26" fill="#0891B2"/><polygon points="72,56 69.74,58.26 55.20,56.00" fill="#22D3EE"/><polygon points="72,56 55.20,56.00 69.74,53.74" fill="#0891B2"/></svg>
